<?xml version="1.0" encoding="UTF-8"?>
<svg width="565px" height="253px" viewBox="0 0 565 253" version="1.1" xmlns="http://www.w3.org/2000/svg" xmlns:xlink="http://www.w3.org/1999/xlink">
    <!-- Generator: Sketch 49.1 (51147) - http://www.bohemiancoding.com/sketch -->
    <title>Now</title>
    <desc>Created with Sketch.</desc>
    <defs></defs>
    <g id="Now" stroke="none" stroke-width="1" fill="none" fill-rule="evenodd">
        <g id="Page-1" transform="translate(66.000000, 65.000000)">
            <polygon id="Fill-1" fill="#293E40" points="401.1588 3.367 375.9868 68.946 351.7448 3.367 326.1728 3.367 301.7058 68.946 276.7588 3.367 246.1638 3.367 291.6698 118.117 314.4938 118.117 338.9588 52.776 363.4238 118.117 386.2498 118.117 431.7548 3.367"></polygon>
            <g id="Group-10" transform="translate(0.000000, 0.484000)">
                <path d="M0.0001,117.633 L0.0001,2.883 L29.4641,2.883 L29.4641,12.11 C38.1851,5.013 49.0281,0.516 61.7551,0.516 C77.5481,0.516 91.9261,7.614 101.3551,18.972 C108.8981,27.962 113.1391,39.557 113.1391,59.194 L113.1391,117.633 L82.4981,117.633 L82.4981,56.827 C82.4981,45.471 79.9051,39.557 75.6631,35.297 C71.6551,31.275 65.5271,28.908 58.4561,28.908 C45.4911,28.908 34.8861,37.19 30.6431,43.106 L30.6431,117.633 L0.0001,117.633 Z" id="Fill-2" fill="#293E40"></path>
                <path d="M189.3472,101.4475 C169.9152,101.4475 156.6152,86.8185 156.6152,68.7185 C156.6152,50.6145 169.9152,35.7365 189.3472,35.7365 C208.7852,35.7365 222.0772,50.6145 222.0772,68.7185 C222.0772,86.8185 208.7852,101.4475 189.3472,101.4475 M189.7302,2.8835 C153.8572,2.6765 124.1822,32.0305 123.8852,68.0375 C123.7282,87.0985 131.6622,104.3095 144.4462,116.4105 C149.0952,120.8085 156.2832,121.2355 161.3262,117.3005 C168.7782,111.4845 178.3482,108.0185 189.3472,108.0185 C200.3452,108.0185 209.9152,111.4865 217.3672,117.3005 C222.4512,121.2665 229.6692,120.7595 234.3452,116.3155 C246.9472,104.3395 254.8102,87.3835 254.8102,68.5925 C254.8102,32.4345 225.7032,3.0895 189.7302,2.8835" id="Fill-4" fill="#81B5A1"></path>
                <polygon id="Fill-6" fill="#293E40" points="418.296 106.1047 414.387 106.1047 414.387 117.6327 413.114 117.6327 413.114 106.1047 409.204 106.1047 409.204 104.9057 418.296 104.9057"></polygon>
                <polygon id="Fill-8" fill="#293E40" points="431.7549 117.633 430.4829 117.633 430.4829 106.833 426.0269 114.287 425.8459 114.287 421.3909 106.833 421.3909 117.633 420.1189 117.633 420.1189 104.905 421.6999 104.905 425.9369 111.996 430.1739 104.905 431.7549 104.905"></polygon>
            </g>
        </g>
    </g>
</svg>