<?xml version="1.0" encoding="utf-8"?>
<svg version="1.0" width="500.000000pt" height="500.000000pt" viewBox="0 0 500.000000 500.000000" preserveAspectRatio="xMidYMid meet" xmlns="http://www.w3.org/2000/svg">
  <g transform="translate(0.000000,500.000000) scale(0.100000,-0.100000)" fill="#000000" stroke="none">
    <path d="M2015 2770 c-39 -43 -9 -110 50 -110 18 0 39 8 48 18 22 25 21 75 -1 95 -25 23 -75 21 -97 -3z" style="fill: rgb(255, 253, 253);"/>
    <path d="M594 2600 c-38 -15 -74 -68 -74 -109 0 -55 29 -85 109 -116 74 -28 94 -51 64 -73 -21 -16 -86 -9 -120 13 -21 14 -24 13 -49 -20 -32 -42 -25 -56 43 -79 129 -44 243 7 243 109 0 59 -26 88 -110 120 -77 30 -88 39 -69 61 13 16 75 16 109 1 10 -5 22 4 38 28 12 19 22 37 22 39 0 2 -18 11 -40 20 -43 17 -131 20 -166 6z" style="fill: rgb(255, 255, 255);"/>
    <path d="M945 2594 c-77 -40 -110 -106 -103 -208 3 -54 9 -72 34 -103 66 -82 169 -106 260 -62 66 31 72 44 39 79 l-28 30 -32 -20 c-50 -31 -110 -27 -146 9 -55 55 -45 61 106 61 l135 0 0 40 c0 72 -42 145 -102 176 -36 19 -126 18 -163 -2z m129 -85 c48 -38 35 -49 -55 -49 l-81 0 14 23 c17 24 54 47 79 47 9 0 28 -9 43 -21z" style="fill: rgb(255, 255, 255);"/>
    <path d="M1260 2410 l0 -200 55 0 55 0 0 129 c0 128 0 130 26 150 17 13 41 21 65 21 l39 0 0 50 c0 49 -1 50 -30 50 -17 0 -47 -7 -67 -15 -19 -8 -37 -15 -39 -15 -2 0 -4 7 -4 15 0 11 -12 15 -50 15 l-50 0 0 -200z" style="fill: rgb(255, 253, 253);"/>
    <path d="M1540 2607 c0 -1 39 -90 88 -197 l88 -195 39 -3 40 -3 88 193 c48 106 87 197 87 201 0 4 -24 7 -52 5 l-53 -3 -50 -112 c-28 -61 -53 -114 -56 -118 -4 -3 -26 38 -49 92 -62 143 -62 143 -120 143 -28 0 -50 -1 -50 -3z" style="fill: rgb(255, 253, 253);"/>
    <path d="M2017 2604 c-4 -4 -7 -94 -7 -201 l0 -193 55 0 55 0 -2 198 -3 197 -45 3 c-25 2 -49 0 -53 -4z" style="fill: rgb(255, 253, 253);"/>
    <path d="M2285 2594 c-126 -65 -160 -213 -72 -319 75 -91 225 -102 310 -22 15 14 27 30 27 35 0 5 -16 20 -36 34 l-36 26 -35 -24 c-52 -35 -97 -32 -139 10 -101 101 43 244 149 148 17 -15 20 -13 55 21 l37 38 -25 20 c-61 50 -173 66 -235 33z" style="fill: rgb(255, 253, 253);"/>
    <path d="M2675 2592 c-172 -108 -118 -374 80 -390 64 -5 130 15 163 51 l22 23 -29 28 -28 27 -34 -20 c-48 -29 -100 -27 -138 5 -17 14 -31 34 -31 45 0 18 9 19 136 19 l137 0 -6 49 c-8 64 -38 123 -79 152 -45 33 -150 38 -193 11z m148 -93 c9 -12 17 -25 17 -30 0 -5 -36 -9 -80 -9 -82 0 -89 3 -67 31 34 43 97 47 130 8z" style="fill: rgb(255, 253, 253);"/>
    <path d="M2997 2603 c-4 -3 -7 -93 -7 -200 l0 -193 55 0 54 0 3 131 c3 131 3 132 31 152 37 28 91 27 120 -1 20 -21 22 -34 25 -152 l4 -130 49 0 49 0 0 135 c0 153 -12 194 -72 236 -42 30 -132 38 -176 15 -38 -20 -42 -20 -42 -1 0 11 -11 15 -43 15 -24 0 -47 -3 -50 -7z" style="fill: rgb(255, 253, 253);"/>
    <path d="M3552 2589 c-91 -45 -143 -153 -122 -253 13 -64 61 -136 90 -136 11 0 37 9 57 20 49 26 105 25 159 -2 56 -28 80 -18 117 51 67 122 15 275 -110 328 -50 20 -141 17 -191 -8z m153 -103 c40 -17 65 -60 65 -112 0 -28 -8 -44 -34 -70 -93 -93 -238 10 -181 129 16 35 63 66 98 67 10 0 33 -6 52 -14z" style="fill: rgb(255, 253, 253);"/>
    <path d="M3867 2603 c-3 -4 30 -94 72 -200 l76 -192 41 -1 41 0 39 105 c21 58 41 105 44 105 3 0 23 -47 45 -105 l39 -105 41 0 40 0 72 183 c40 100 74 189 75 197 2 12 -8 15 -47 15 l-50 0 -33 -85 c-58 -152 -48 -149 -95 -25 l-42 110 -45 0 -44 0 -42 -110 c-48 -125 -38 -127 -96 25 l-33 85 -47 3 c-25 2 -48 -1 -51 -5z" style="fill: rgb(255, 253, 253);"/>
    <path d="M4418 2235 c2 -14 6 -25 7 -25 1 0 5 11 7 25 3 16 1 25 -7 25 -8 0 -10 -9 -7 -25z" style="fill: rgb(255, 255, 255);"/>
    <path d="M4451 2234 c0 -16 3 -24 5 -18 3 7 14 10 24 7 16 -4 20 0 20 18 0 18 -2 21 -9 10 -8 -12 -12 -12 -25 -2 -14 12 -16 10 -15 -15z" style="fill: rgb(255, 253, 253);"/>
  </g>
</svg>